<?xml version="1.0" encoding="UTF-8"?>
<svg version="1.1" xmlns="http://www.w3.org/2000/svg" width="1024" height="1024">
<path d="M0 0 C1.36969437 -0.00058914 1.36969437 -0.00058914 2.76705933 -0.00119019 C15.59001172 0.00542212 28.2054196 0.43904235 40.94873047 1.95263672 C45.97103979 2.47951366 51.02663578 2.63403371 56.0703125 2.84375 C59.1875 3.1875 59.1875 3.1875 61.09399414 4.14379883 C63.35200721 5.2695138 65.32756534 5.75074044 67.80078125 6.23046875 C68.70707275 6.41319336 69.61336426 6.59591797 70.54711914 6.78417969 C71.52156982 6.97915039 72.49602051 7.17412109 73.5 7.375 C99.38834847 12.82000727 123.81410661 21.82438458 147.1875 34.1875 C147.9403125 34.58565918 148.693125 34.98381836 149.46875 35.39404297 C155.83629588 38.7676379 155.83629588 38.7676379 158.69458008 40.30664062 C161.50093412 41.81122991 164.16012791 43.17837597 167.1875 44.1875 C168.19045419 45.18453706 169.18982828 46.18517713 170.1875 47.1875 C172.10220171 48.53304074 174.04266462 49.84226826 176 51.125 C177.01707031 51.79402344 178.03414062 52.46304688 179.08203125 53.15234375 C181.09207011 54.4696145 183.10987949 55.77513515 185.13671875 57.06640625 C188.71185788 59.55206636 191.92342361 62.31337572 195.1875 65.1875 C196.38805762 66.22412345 197.58988036 67.25928354 198.79296875 68.29296875 C200.59651743 69.844768 202.40001797 71.39659305 204.20117188 72.95117188 C206.62638285 75.03562873 209.01195576 77.06170743 211.61328125 78.92578125 C212.13277344 79.34214844 212.65226562 79.75851562 213.1875 80.1875 C213.1875 80.8475 213.1875 81.5075 213.1875 82.1875 C213.72761719 82.40148437 214.26773437 82.61546875 214.82421875 82.8359375 C218.0378654 84.67382468 220.43690848 87.18401938 223 89.8125 C223.5347998 90.35519531 224.06959961 90.89789063 224.62060547 91.45703125 C228.64305949 95.56610773 232.49377483 99.77965464 236.1875 104.1875 C236.93257812 105.05503906 237.67765625 105.92257812 238.4453125 106.81640625 C255.78736891 127.23001811 269.67389334 149.71789735 282.125 173.375 C282.85299805 174.75800293 282.85299805 174.75800293 283.59570312 176.16894531 C284.04751953 177.03487305 284.49933594 177.90080078 284.96484375 178.79296875 C285.36952881 179.56793701 285.77421387 180.34290527 286.19116211 181.14135742 C287.1875 183.1875 287.1875 183.1875 288.1875 186.1875 C288.8475 186.8475 289.5075 187.5075 290.1875 188.1875 C290.92260742 190.03955078 290.92260742 190.03955078 291.60546875 192.2578125 C292.60201184 195.38801995 293.64102836 198.48102928 294.80078125 201.5546875 C295.07647949 202.28631104 295.35217773 203.01793457 295.63623047 203.77172852 C295.92127441 204.52768311 296.20631836 205.2836377 296.5 206.0625 C299.35709818 213.70925902 301.92402203 221.4177002 304.3215332 229.22021484 C305.53391826 233.28853588 305.53391826 233.28853588 307.1875 237.1875 C307.42899074 238.82497669 307.66669331 240.46311478 307.88378906 242.10400391 C308.20674406 244.31951671 308.61941318 246.50306193 309.0546875 248.69921875 C311.8297575 262.86435724 313.50667481 277.03205271 314.86206055 291.39868164 C315.13917815 294.1518279 315.13917815 294.1518279 315.71899414 296.68066406 C323.04600358 335.88531908 308.66690314 390.83363402 286.99023438 424.02050781 C284.54803279 427.54015127 281.89355906 430.86929832 279.1875 434.1875 C278.43855469 435.16074219 277.68960938 436.13398437 276.91796875 437.13671875 C272.88189553 442.35088902 272.88189553 442.35088902 271.1875 444.1875 C270.5275 444.1875 269.8675 444.1875 269.1875 444.1875 C268.96707031 444.74953125 268.74664063 445.3115625 268.51953125 445.890625 C259.21885854 461.92814862 232.09349252 472.91016138 215.37158203 477.62451172 C203.55658394 480.67005002 191.39180587 482.81522011 179.1875 483.1875 C178.19492187 483.22746094 177.20234375 483.26742188 176.1796875 483.30859375 C131.57340142 484.25885298 88.44861932 465.95275573 56.38916016 435.34863281 C54.64010946 433.64268085 52.90877938 431.9214433 51.1875 430.1875 C50.67606445 429.6733252 50.16462891 429.15915039 49.63769531 428.62939453 C42.75187433 421.61808642 36.85689308 414.04492939 31.36083984 405.92138672 C30.2598149 404.29436234 29.14029265 402.67989879 28.01953125 401.06640625 C4.60443884 366.2209955 -7.24246726 326.44469009 -18.06628418 286.37860107 C-21.98545489 271.87418575 -26.34739137 257.58471181 -31.16088867 243.35009766 C-31.8125 241.1875 -31.8125 241.1875 -31.8125 239.1875 C-32.4725 238.8575 -33.1325 238.5275 -33.8125 238.1875 C-33.4825 237.5275 -33.1525 236.8675 -32.8125 236.1875 C-33.4725 235.8575 -34.1325 235.5275 -34.8125 235.1875 C-35.48269293 233.17692121 -36.14660331 231.16414305 -36.7890625 229.14453125 C-45.59522499 203.7007717 -60.05174184 180.27707795 -77.8125 160.1875 C-78.68108678 159.13764577 -79.54697932 158.08555664 -80.41015625 157.03125 C-100.08933918 133.7362172 -132.4283731 118.81125635 -161.8125 113.1875 C-162.89015625 112.98125 -163.9678125 112.775 -165.078125 112.5625 C-187.70933344 108.90903137 -210.06144057 111.04584773 -231.98828125 117.1640625 C-235.8125 118.1875 -235.8125 118.1875 -237.8125 118.1875 C-236.16691608 114.31991294 -233.5907088 111.33851196 -230.875 108.1875 C-230.14301392 107.33200562 -230.14301392 107.33200562 -229.39624023 106.45922852 C-218.38139875 93.65896096 -206.87053615 80.93987272 -193.8125 70.1875 C-193.29349121 69.76001465 -192.77448242 69.3325293 -192.23974609 68.89208984 C-167.81592554 48.86089647 -141.69192536 33.94052259 -112.8125 21.1875 C-112.8125 20.5275 -112.8125 19.8675 -112.8125 19.1875 C-111.71421875 19.09855469 -110.6159375 19.00960937 -109.484375 18.91796875 C-104.06477647 18.23755027 -99.17770336 16.34495988 -94.0625 14.5 C-73.60075429 7.42296931 -52.30390436 3.53197777 -30.8125 1.1875 C-30.03189209 1.09251221 -29.25128418 0.99752441 -28.44702148 0.8996582 C-18.99383006 -0.13174907 -9.49690962 -0.00864491 0 0 Z " fill="#FCC612" transform="translate(507.8125,196.8125)"/>
<path d="M0 0 C0.68715088 0.14308594 1.37430176 0.28617187 2.08227539 0.43359375 C4 1 4 1 7 3 C9.00790153 3.88413771 11.03045439 4.73536114 13.0625 5.5625 C19.02165956 7.99672639 23.92235582 10.91969116 29.2734375 14.50390625 C32.06611944 16.32070043 32.06611944 16.32070043 36 16 C36.0515625 16.56589844 36.103125 17.13179688 36.15625 17.71484375 C37.39996345 21.08323434 39.67306079 22.40950893 42.5 24.5625 C47.89510086 28.68530259 47.89510086 28.68530259 49 32 C49.99 32 50.98 32 52 32 C53.34331654 33.99330842 54.67594012 35.99384866 56 38 C57.32567199 38.68177416 58.65753688 39.35191436 60 40 C60.12117187 40.55171875 60.24234375 41.1034375 60.3671875 41.671875 C61.25881094 44.95216863 63.03275626 47.32127232 64.9375 50.125 C66.00291016 51.70667969 66.00291016 51.70667969 67.08984375 53.3203125 C68.88580213 55.99603659 68.88580213 55.99603659 71 58 C72.41813395 60.64462818 73.73592577 63.32894778 75.0534668 66.0246582 C75.37226807 66.67523193 75.69106934 67.32580566 76.01953125 67.99609375 C76.34646973 68.66366699 76.6734082 69.33124023 77.01025391 70.01904297 C77.93819243 71.87629337 78.90246931 73.70726444 79.88671875 75.53515625 C93.092045 100.33358951 101.30718631 128.7712709 108 156 C108.4654721 157.68876906 108.93595137 159.37616227 109.41015625 161.0625 C109.67763672 162.02414062 109.94511719 162.98578125 110.22070312 163.9765625 C110.78218298 165.99320011 111.34729262 168.00883059 111.91601562 170.0234375 C112.18220703 170.98507812 112.44839844 171.94671875 112.72265625 172.9375 C112.96765869 173.81277344 113.21266113 174.68804688 113.46508789 175.58984375 C114 178 114 178 114 182 C114.66 182.33 115.32 182.66 116 183 C116.76298948 185.55861933 117.42959435 188.09627764 118.0625 190.6875 C120.95662934 201.88887376 125.43196802 212.39452005 130 223 C130.66 223 131.32 223 132 223 C132.0825 223.969375 132.165 224.93875 132.25 225.9375 C132.91348203 230.57239592 134.52347845 235.02048606 137 239 C137.99 239.33 138.98 239.66 140 240 C140.04898437 240.63808594 140.09796875 241.27617188 140.1484375 241.93359375 C140.26058594 243.17302734 140.26058594 243.17302734 140.375 244.4375 C140.44460938 245.26121094 140.51421875 246.08492187 140.5859375 246.93359375 C140.72257812 247.61550781 140.85921875 248.29742188 141 249 C141.66 249.33 142.32 249.66 143 250 C143.4640625 251.2375 143.4640625 251.2375 143.9375 252.5 C144.288125 253.325 144.63875 254.15 145 255 C145.99 255.33 146.98 255.66 148 256 C148.09667969 256.8765625 148.19335938 257.753125 148.29296875 258.65625 C149.06053669 262.28629508 150.25555245 264.43439937 152.3125 267.5 C153.25996094 268.92119141 153.25996094 268.92119141 154.2265625 270.37109375 C154.81179688 271.23863281 155.39703125 272.10617187 156 273 C156.39960937 273.65097656 156.79921875 274.30195312 157.2109375 274.97265625 C158.67546511 277.35690719 159.63263986 278.82156793 162.1875 280.0625 C163.0846875 280.5265625 163.0846875 280.5265625 164 281 C164.09667969 281.71414063 164.19335938 282.42828125 164.29296875 283.1640625 C165.2558089 287.02606223 167.53466422 289.41581253 170.125 292.3125 C170.62636475 292.88718018 171.12772949 293.46186035 171.64428711 294.05395508 C172.64197035 295.19593201 173.64342739 296.33462474 174.64892578 297.46972656 C175.75767191 298.72553081 176.84825829 299.99734611 177.93359375 301.2734375 C187.85531009 312.93204903 199.19015244 322.61526561 211.5625 331.5625 C212.17061523 332.00464844 212.77873047 332.44679688 213.40527344 332.90234375 C216.40593663 335.24677865 216.40593663 335.24677865 220 336 C220 336.66 220 337.32 220 338 C220.66 338.2475 221.32 338.495 222 338.75 C225.13242603 340.05517751 228.11839936 341.54353274 231.1328125 343.09765625 C233.14664322 344.12002876 233.14664322 344.12002876 236 345 C236.53625 345.433125 237.0725 345.86625 237.625 346.3125 C241.53868779 349.09327817 246.19255986 351.34911507 250.88916016 352.43798828 C253.0941763 353.02507447 254.9419435 353.86269485 256.9921875 354.859375 C262.53313138 357.36788254 268.22980524 358.81464823 274.125 360.25 C275.17042969 360.518125 276.21585938 360.78625 277.29296875 361.0625 C282.6614054 362.39273209 287.46783588 363.34478077 293 363 C293 363.66 293 364.32 293 365 C298.65182735 365.07537316 304.30334852 365.12916571 309.95556641 365.16479492 C311.86968088 365.17968141 313.78376252 365.19999725 315.69775391 365.22631836 C336.65744898 366.2274288 336.65744898 366.2274288 356 360 C357.258125 359.896875 358.51625 359.79375 359.8125 359.6875 C366.55295522 359.10719591 372.73815189 356.41388455 379 354 C378.67 353.34 378.34 352.68 378 352 C379.14339844 351.92265625 380.28679688 351.8453125 381.46484375 351.765625 C386.43147475 351.14028647 390.23601724 349.16969805 394.5625 346.75 C395.27857422 346.36714844 395.99464844 345.98429687 396.73242188 345.58984375 C400.29085888 343.65358776 403.6349816 341.60059953 406.90234375 339.203125 C410 337 410 337 412 337 C410.69103089 342.11687924 408.70561686 344.34250804 405 348 C403.42858516 349.99778849 401.88828393 352.02032586 400.375 354.0625 C396.06314092 359.78897014 391.41446624 365.07390422 386.515625 370.30078125 C384.4717374 372.49383456 382.50253587 374.71621991 380.5625 377 C377.40580796 380.63404548 374.06773455 384.07525578 370.6875 387.5 C370.15906494 388.04140625 369.63062988 388.5828125 369.08618164 389.140625 C367.76298621 390.46702533 366.38536199 391.7386689 365 393 C364.34 393 363.68 393 363 393 C363 393.66 363 394.32 363 395 C361.5390625 396.5078125 361.5390625 396.5078125 359.625 398.125 C358.68527344 398.93324219 358.68527344 398.93324219 357.7265625 399.7578125 C356 401 356 401 354 401 C354 401.66 354 402.32 354 403 C352.01695565 404.73249021 350.02770567 406.34261945 347.9375 407.9375 C347.31278809 408.42041504 346.68807617 408.90333008 346.04443359 409.40087891 C336.61859684 416.6502597 327.16824404 423.81930264 317 430 C316.34 430.66 315.68 431.32 315 432 C313.40726494 432.9368818 311.78977371 433.83197667 310.16015625 434.703125 C309.16902832 435.23486328 308.17790039 435.76660156 307.15673828 436.31445312 C306.11501465 436.87068359 305.07329102 437.42691406 304 438 C302.50895752 438.81114258 302.50895752 438.81114258 300.98779297 439.63867188 C277.10138625 452.60721499 249.34840597 467.04069165 221.87890625 469.55859375 C220.59886719 469.70425781 219.31882812 469.84992188 218 470 C217.67 470.66 217.34 471.32 217 472 C214.17598654 472.56230356 211.35558905 472.85726335 208.49536133 473.17138672 C207.73247803 473.25533691 206.96959473 473.33928711 206.18359375 473.42578125 C205.35714355 473.51424316 204.53069336 473.60270508 203.67919922 473.69384766 C200.83290426 474.01909405 197.99823836 474.40270359 195.16015625 474.79296875 C116.26842209 485.21401076 35.69843052 463.33698826 -28 416 C-29.03382813 415.25234375 -30.06765625 414.5046875 -31.1328125 413.734375 C-37.16060014 409.32530271 -42.77625232 404.65236812 -48.234375 399.5546875 C-50.40037379 397.55389201 -52.59236729 395.61652456 -54.82421875 393.69140625 C-59.07834959 389.98293352 -63.08462897 386.06352062 -67.0625 382.0625 C-67.73087891 381.39798828 -68.39925781 380.73347656 -69.08789062 380.04882812 C-75.11515095 374.00985301 -80.69473893 367.68069913 -86 361 C-86.66 360.34 -87.32 359.68 -88 359 C-88.89381388 357.67920497 -89.7659955 356.34369418 -90.625 355 C-92.80869887 351.66920148 -95.1197805 348.60474671 -97.6875 345.5625 C-103.05699897 338.95545936 -107.27631715 331.65350345 -111.60644531 324.34472656 C-112.95053528 322.08322691 -114.31256982 319.83357165 -115.6796875 317.5859375 C-121.08585481 308.64074418 -125.89355327 299.61245167 -130 290 C-130.46720459 288.91307861 -130.46720459 288.91307861 -130.94384766 287.80419922 C-135.31183446 277.53693237 -139.07157166 267.11731578 -142.5 256.5 C-142.85054443 255.41928223 -143.20108887 254.33856445 -143.56225586 253.22509766 C-143.88202393 252.21237793 -144.20179199 251.1996582 -144.53125 250.15625 C-144.81548828 249.25712891 -145.09972656 248.35800781 -145.39257812 247.43164062 C-146 245 -146 245 -146 241 C-146.66 240.67 -147.32 240.34 -148 240 C-148.6328125 237.671875 -148.6328125 237.671875 -149.125 234.75 C-149.29257813 233.79609375 -149.46015625 232.8421875 -149.6328125 231.859375 C-149.97444439 229.19900755 -150.06841462 226.67794365 -150 224 C-150.99 224 -151.98 224 -153 224 C-152.73630615 222.9164624 -152.73630615 222.9164624 -152.46728516 221.81103516 C-151.99317029 218.9589147 -152.09872408 216.86896247 -152.5234375 214.0234375 C-152.6575 213.105625 -152.7915625 212.1878125 -152.9296875 211.2421875 C-153.07664063 210.29601562 -153.22359375 209.34984375 -153.375 208.375 C-153.51421875 207.42109375 -153.6534375 206.4671875 -153.796875 205.484375 C-154.58868677 200.17170251 -154.58868677 200.17170251 -156 195 C-156.15140972 192.95209803 -156.24885956 190.90003654 -156.31640625 188.84765625 C-156.37948975 186.98596802 -156.37948975 186.98596802 -156.44384766 185.08666992 C-156.48389485 183.74529468 -156.52343447 182.40390419 -156.5625 181.0625 C-156.58334656 180.38361725 -156.60419312 179.7047345 -156.62567139 179.00527954 C-156.94615102 168.52170155 -157.21808926 158.04245517 -157.04150391 147.55371094 C-157.01214354 145.74718499 -156.99187777 143.9405005 -156.97802734 142.13378906 C-156.83297101 126.86599524 -154.99869152 112.59137434 -151.60791016 97.70947266 C-151.05916717 95.26370972 -150.55364842 92.81559995 -150.07421875 90.35546875 C-148.67816967 83.28931265 -148.67816967 83.28931265 -148 81 C-147.01 80.505 -147.01 80.505 -146 80 C-145.773125 78.824375 -145.54625 77.64875 -145.3125 76.4375 C-141.73289056 59.16793384 -131.01198959 42.93073673 -119.40332031 29.98364258 C-116.79221858 27.39681237 -116.79221858 27.39681237 -116 24 C-114.329375 23.13375 -114.329375 23.13375 -112.625 22.25 C-109.53222497 20.50837719 -108.45841173 19.25338001 -107 16 C-106.45472656 15.87882812 -105.90945312 15.75765625 -105.34765625 15.6328125 C-100.87401105 14.42693809 -97.1510506 11.40190735 -93.2890625 8.91015625 C-90.21441444 7.12452335 -87.35694296 6.10412726 -84 5 C-83.67 4.34 -83.34 3.68 -83 3 C-80.9375 2.375 -80.9375 2.375 -79 2 C-79.495 1.01 -79.495 1.01 -80 0 C-78.9275 0.061875 -77.855 0.12375 -76.75 0.1875 C-73.17919573 0.19369931 -70.18064322 -0.40525852 -66.75 -1.375 C-44.48277984 -7.25690721 -22.16696388 -4.95316268 0 0 Z " fill="#046F5D" transform="translate(356,344)"/>
<path d="M0 0 C1.25742508 -0.00009064 1.25742508 -0.00009064 2.54025269 -0.00018311 C15.60764481 0.01308657 28.63840878 0.37859533 41.6875 1.0625 C42.8743338 1.12130844 42.8743338 1.12130844 44.08514404 1.18130493 C46.32961463 1.29547979 48.57293616 1.42242743 50.81640625 1.5546875 C52.08685791 1.62800293 53.35730957 1.70131836 54.66625977 1.77685547 C58.06395933 2.18025285 60.93234525 2.98178782 64.125 4.1875 C64.125 4.8475 64.125 5.5075 64.125 6.1875 C65.445 6.5175 66.765 6.8475 68.125 7.1875 C56.65580689 6.56130842 45.28255193 5.53875093 33.94140625 3.66015625 C28.49220251 2.98528045 23.04742576 2.81513573 17.5625 2.625 C16.39082275 2.5839917 15.21914551 2.5429834 14.01196289 2.50073242 C10.71647087 2.39008086 7.42082856 2.28753657 4.125 2.1875 C2.1759375 2.12175781 2.1759375 2.12175781 0.1875 2.0546875 C-17.66354452 1.74229422 -36.66348356 3.25345239 -54.0625 7.375 C-57.875 8.1875 -57.875 8.1875 -60.875 7.1875 C-57.54617201 5.26197682 -54.53925564 4.68074863 -50.74609375 4.15234375 C-49.54533203 3.98283203 -48.34457031 3.81332031 -47.10742188 3.63867188 C-45.85509766 3.46916016 -44.60277344 3.29964844 -43.3125 3.125 C-42.08724609 2.95162109 -40.86199219 2.77824219 -39.59960938 2.59960938 C-26.33746882 0.75548647 -13.37754136 -0.0147722 0 0 Z " fill="#FDE31E" transform="translate(506.875,197.8125)"/>
<path d="M0 0 C-1.05574219 0.4021875 -1.05574219 0.4021875 -2.1328125 0.8125 C-19.62954977 7.75637484 -33.24501766 17.24038092 -45 32 C-47.75 33.8125 -47.75 33.8125 -50 35 C-49.33333333 33.66666667 -48.66666667 32.33333333 -48 31 C-47.525625 30.01 -47.05125 29.02 -46.5625 28 C-44.24666407 23.55359502 -42.00667603 20.94608532 -38 18 C-37.175 17.154375 -36.35 16.30875 -35.5 15.4375 C-33.22782354 13.22212795 -31.86392776 12.17926437 -29 11 C-23.79640397 8.83509539 -18.77100577 6.43234063 -13.75 3.875 C-3.7099278 -1.2366426 -3.7099278 -1.2366426 0 0 Z " fill="#077A66" transform="translate(282,348)"/>
<path d="M0 0 C-4.18905194 1.99932024 -8.15919491 3.33366834 -12.6875 4.375 C-19.86788269 6.08461493 -26.45110421 8.89217833 -33.1328125 11.98828125 C-36.57883066 13.56211205 -39.19594745 14.34582296 -43 14 C-43 14.66 -43 15.32 -43 16 C-44.65 16 -46.3 16 -48 16 C-44.59060935 13.13301241 -40.82972984 11.4916571 -36.75 9.8125 C-35.77546875 9.40354492 -35.77546875 9.40354492 -34.78125 8.98632812 C-33.18958104 8.31923158 -31.59506897 7.65892555 -30 7 C-30 6.34 -30 5.68 -30 5 C-28.845 4.896875 -27.69 4.79375 -26.5 4.6875 C-23.49375662 4.31831222 -20.93082994 3.69628434 -18.125 2.5625 C-12.41069015 0.2700002 -6.0443906 -1.94085937 0 0 Z " fill="#EDCF22" transform="translate(425,211)"/>
<path d="M0 0 C0.33 0 0.66 0 1 0 C2.2331833 5.05605154 1.41898085 8.06662571 0 13 C-0.41202986 15.69569866 -0.77125518 18.35518947 -1.0625 21.0625 C-1.14048828 21.72443359 -1.21847656 22.38636719 -1.29882812 23.06835938 C-2.75651053 35.97065573 -3.2241199 48.90606458 -3.5625 61.875 C-3.60584074 63.44922646 -3.64945903 65.0234453 -3.69335938 66.59765625 C-3.7987599 70.39835766 -3.90044912 74.19914106 -4 78 C-4.33 78 -4.66 78 -5 78 C-5.36464801 51.6294039 -5.47798582 25.93428972 0 0 Z " fill="#058672" transform="translate(206,442)"/>
<path d="M0 0 C0.33 0 0.66 0 1 0 C1.06058594 0.73605469 1.12117187 1.47210938 1.18359375 2.23046875 C1.26738281 3.20628906 1.35117187 4.18210937 1.4375 5.1875 C1.51871094 6.15042969 1.59992187 7.11335938 1.68359375 8.10546875 C1.93799378 10.91871954 1.93799378 10.91871954 2.51220703 13.31323242 C4.30708426 23.1994306 2.78995237 33.92799177 2.0625 43.875 C1.93198242 45.77378906 1.93198242 45.77378906 1.79882812 47.7109375 C1.38702868 53.5188348 0.86989054 59.23987708 0 65 C-0.33 65 -0.66 65 -1 65 C-1.07819874 60.22987716 -1.00412296 55.60321288 -0.50219727 50.8581543 C0.02714026 45.25105186 0.12897633 39.71063072 0.09765625 34.08203125 C0.0962413 33.09877365 0.09482635 32.11551605 0.09336853 31.10246277 C0.08783463 28.00577567 0.07529514 24.90916472 0.0625 21.8125 C0.05747644 19.69466251 0.05291504 17.57682388 0.04882812 15.45898438 C0.03788698 10.30596088 0.02066921 5.15299329 0 0 Z " fill="#D6A91D" transform="translate(821,480)"/>
<path d="M0 0 C1.98 0.99 1.98 0.99 4 2 C4 2.99 4 3.98 4 5 C4.99 5.33 5.98 5.66 7 6 C9.31142535 8.55598957 11.20967169 11.43118698 13.1875 14.25 C13.74630859 15.01441406 14.30511719 15.77882813 14.88085938 16.56640625 C15.40873047 17.31277344 15.93660156 18.05914062 16.48046875 18.828125 C16.96410889 19.5077832 17.44774902 20.18744141 17.94604492 20.88769531 C19.20625855 23.41337712 19.19596455 25.21335366 19 28 C16.92688996 26.02788094 15.27586628 24.07711521 13.73046875 21.671875 C13.11341064 20.72393066 13.11341064 20.72393066 12.48388672 19.75683594 C11.84217529 18.76345215 11.84217529 18.76345215 11.1875 17.75 C8.44484875 13.54827833 5.74672581 9.48384433 2.375 5.75 C0 3 0 3 0 0 Z " fill="#E5C61E" transform="translate(435,360)"/>
<path d="M0 0 C8.10231574 -0.42826384 14.94004019 0.68358777 22.6875 3 C23.68716797 3.28617188 24.68683594 3.57234375 25.71679688 3.8671875 C28.14857825 4.56530655 30.57573916 5.27628259 33 6 C33 6.33 33 6.66 33 7 C25.48017515 6.69980739 18.23033351 5.58347814 10.875 4.0625 C10.03348389 3.89266602 9.19196777 3.72283203 8.32495117 3.54785156 C7.53451416 3.37866211 6.74407715 3.20947266 5.9296875 3.03515625 C5.22054199 2.8844165 4.51139648 2.73367676 3.78076172 2.57836914 C2 2 2 2 0 0 Z " fill="#EFCF22" transform="translate(575,205)"/>
<path d="M0 0 C0 0.33 0 0.66 0 1 C-3.39547574 1.81399927 -6.79144197 2.6259338 -10.1875 3.4375 C-11.14720703 3.66759766 -12.10691406 3.89769531 -13.09570312 4.13476562 C-14.02705078 4.35712891 -14.95839844 4.57949219 -15.91796875 4.80859375 C-17.19837036 5.11494751 -17.19837036 5.11494751 -18.50463867 5.42749023 C-20.99517899 5.99889392 -23.49210179 6.51098931 -26 7 C-25.01958581 4.54896452 -24.3486182 3.23241214 -22.125 1.75 C-20 1 -20 1 -16 1 C-14.7625 0.649375 -13.525 0.29875 -12.25 -0.0625 C-7.86820101 -1.24031439 -4.4396949 -0.79280266 0 0 Z " fill="#D1C221" transform="translate(296,308)"/>
<path d="M0 0 C0.66 0.33 1.32 0.66 2 1 C0.51007218 4.92799152 -1.40744228 5.9694239 -5 8 C-6.34111586 9.03162758 -7.67390586 10.07413295 -9 11.125 C-11.96063685 13.39033577 -14.17508784 14.76094299 -18 15 C-12.60297766 9.25478267 -6.29377377 4.70962663 0 0 Z " fill="#EFCE20" transform="translate(340,247)"/>
<path d="M0 0 C-1.28923803 5.03974865 -3.16684277 7.53190536 -7 11 C-8.1446875 12.1446875 -8.1446875 12.1446875 -9.3125 13.3125 C-9.869375 13.869375 -10.42625 14.42625 -11 15 C-10.67 12.69 -10.34 10.38 -10 8 C-10.66 7.67 -11.32 7.34 -12 7 C-10.3790787 5.82767315 -8.75313167 4.6622923 -7.125 3.5 C-6.22007812 2.8503125 -5.31515625 2.200625 -4.3828125 1.53125 C-2 0 -2 0 0 0 Z " fill="#136C53" transform="translate(768,681)"/>
<path d="M0 0 C2.58361518 -0.05407567 5.16609255 -0.093707 7.75 -0.125 C8.84441406 -0.15013672 8.84441406 -0.15013672 9.9609375 -0.17578125 C13.8044624 -0.21072239 16.74606772 -0.17499684 20 2 C20 2.66 20 3.32 20 4 C21.32 4.33 22.64 4.66 24 5 C21.60385425 4.85834107 19.20817103 4.71181159 16.8125 4.5625 C16.13896484 4.52318359 15.46542969 4.48386719 14.77148438 4.44335938 C4.44757175 3.78867223 4.44757175 3.78867223 0 0 Z " fill="#F1D021" transform="translate(551,200)"/>
<path d="M0 0 C3.75063565 0.5866753 6.559276 1.64940008 9.86328125 3.50390625 C10.74951172 3.99697266 11.63574219 4.49003906 12.54882812 4.99804688 C13.46083984 5.51431641 14.37285156 6.03058594 15.3125 6.5625 C16.24384766 7.08263672 17.17519531 7.60277344 18.13476562 8.13867188 C20.42663795 9.41976974 22.71481613 10.70702105 25 12 C21.95658596 12.96032821 21.27572208 13.11976196 18.203125 11.78515625 C17.22859375 11.21667969 16.2540625 10.64820313 15.25 10.0625 C14.26515625 9.49660156 13.2803125 8.93070313 12.265625 8.34765625 C11.51796875 7.90292969 10.7703125 7.45820313 10 7 C10 6.34 10 5.68 10 5 C8.68 5 7.36 5 6 5 C6 4.34 6 3.68 6 3 C4.02 2.34 2.04 1.68 0 1 C0 0.67 0 0.34 0 0 Z " fill="#E9C922" transform="translate(641,225)"/>
<path d="M0 0 C0.33 0 0.66 0 1 0 C1.33896268 2.83275953 1.67129694 5.66604661 2 8.5 C2.14308594 9.68722656 2.14308594 9.68722656 2.2890625 10.8984375 C2.87107882 15.97029404 3.09367085 20.89493859 3 26 C-1.48327447 17.84687217 -1.28418313 8.9719281 0 0 Z " fill="#0A5B49" transform="translate(201,528)"/>
<path d="M0 0 C6.71539173 1.29975324 12.72019113 3.29928888 19 6 C15.31748062 7.22750646 13.65397023 6.60943561 9.9375 5.625 C8.87402344 5.34914062 7.81054688 5.07328125 6.71484375 4.7890625 C4 4 4 4 2 3 C2 2.34 2 1.68 2 1 C1.34 0.67 0.68 0.34 0 0 Z " fill="#EAC923" transform="translate(608,212)"/>
<path d="M0 0 C5.79340887 0.89129367 10.1319512 4.83440898 14 9 C10.06946815 8.43450607 7.46592463 7.28617442 4.1875 5.0625 C3.39730469 4.53785156 2.60710938 4.01320312 1.79296875 3.47265625 C1.20128906 2.98667969 0.60960937 2.50070313 0 2 C0 1.34 0 0.68 0 0 Z " fill="#EECB1E" transform="translate(681,248)"/>
<path d="M0 0 C0.33 0 0.66 0 1 0 C0.52013969 5.56890517 -0.29915181 10.67067568 -2 16 C-2.66 15.67 -3.32 15.34 -4 15 C-3.50341703 9.33895411 -2.45489316 5.12325529 0 0 Z " fill="#E9B711" transform="translate(816,562)"/>
<path d="M0 0 C2.33524782 2.25740623 4.18705073 4.2805761 6 7 C8.05003955 8.19232613 8.05003955 8.19232613 10 9 C9.34 10.32 8.68 11.64 8 13 C2.65326391 9.67635324 1.52450179 5.80054339 0 0 Z " fill="#176B4F" transform="translate(510,616)"/>
<path d="M0 0 C-6.1399567 3.06997835 -12.23238872 4.05542371 -19 5 C-18.34 4.67 -17.68 4.34 -17 4 C-17 3.34 -17 2.68 -17 2 C-14.91952703 1.4678559 -12.83547707 0.94968214 -10.75 0.4375 C-9.58984375 0.14746094 -8.4296875 -0.14257812 -7.234375 -0.44140625 C-4.27909017 -0.95179964 -2.75565899 -1.02996165 0 0 Z " fill="#F7DA21" transform="translate(425,211)"/>
<path d="M0 0 C0 3.76120097 -1.1245288 5.06182092 -3.25 8.125 C-3.85328125 9.01445312 -4.4565625 9.90390625 -5.078125 10.8203125 C-7.09872963 13.11197385 -8.02045283 13.67040407 -11 14 C-9.42219077 10.28954753 -7.09296752 7.70093616 -4.375 4.75 C-3.55773437 3.85796875 -2.74046875 2.9659375 -1.8984375 2.046875 C-1.27195312 1.37140625 -0.64546875 0.6959375 0 0 Z " fill="#E0C321" transform="translate(290,290)"/>
<path d="M0 0 C-2.0978523 1.20005531 -4.2020249 2.38502983 -6.3125 3.5625 C-6.90740234 3.90474609 -7.50230469 4.24699219 -8.11523438 4.59960938 C-9.70282559 5.47766262 -11.34993931 6.24586268 -13 7 C-13.99 6.67 -14.98 6.34 -16 6 C-15.67 5.34 -15.34 4.68 -15 4 C-13.35 4 -11.7 4 -10 4 C-10 3.34 -10 2.68 -10 2 C-9.34 2 -8.68 2 -8 2 C-8 1.34 -8 0.68 -8 0 C-4.90645403 -0.99435406 -3.09720845 -0.87840996 0 0 Z " fill="#D9B11A" transform="translate(754,661)"/>
<path d="M0 0 C0 0.33 0 0.66 0 1 C-1.56116819 1.33951619 -3.12401338 1.67132544 -4.6875 2 C-5.99267578 2.2784375 -5.99267578 2.2784375 -7.32421875 2.5625 C-9.93712964 2.98972047 -12.35813038 3.07616201 -15 3 C-15.33 2.34 -15.66 1.68 -16 1 C-10.10106757 -0.79074734 -6.06820868 -1.08360869 0 0 Z " fill="#DEC424" transform="translate(296,308)"/>
<path d="M0 0 C3.29963329 1.09987776 3.61064772 1.45586748 5.25 4.3125 C5.60578125 4.90675781 5.9615625 5.50101562 6.328125 6.11328125 C7.15994803 8.4491564 6.7945524 9.69274206 6 12 C4.99157547 10.56839732 3.99352109 9.12948547 3 7.6875 C2.1646875 6.48673828 2.1646875 6.48673828 1.3125 5.26171875 C0 3 0 3 0 0 Z " fill="#DDBF22" transform="translate(447,376)"/>
<path d="M0 0 C0.66 0.33 1.32 0.66 2 1 C0.99382318 3.67576692 0.45785454 4.7785108 -2.1640625 6.046875 C-2.97617187 6.27890625 -3.78828125 6.5109375 -4.625 6.75 C-5.85089844 7.11351562 -5.85089844 7.11351562 -7.1015625 7.484375 C-8.04128906 7.73960937 -8.04128906 7.73960937 -9 8 C-6.14723863 5.06799526 -3.34920216 2.35684596 0 0 Z " fill="#E8C622" transform="translate(340,247)"/>
<path d="M0 0 C5.52628901 1.19194469 8.17819158 2.5991297 12 7 C11.01 7.495 11.01 7.495 10 8 C8.33055479 6.85821872 6.6645052 5.71147095 5 4.5625 C4.071875 3.92441406 3.14375 3.28632812 2.1875 2.62890625 C1.465625 2.09136719 0.74375 1.55382812 0 1 C0 0.67 0 0.34 0 0 Z " fill="#DBB31C" transform="translate(584,647)"/>
<path d="M0 0 C0.99 0 1.98 0 3 0 C3.33 0.99 3.66 1.98 4 3 C3.67 3.66 3.34 4.32 3 5 C3.99 5.33 4.98 5.66 6 6 C6.33 8.31 6.66 10.62 7 13 C4.64283596 10.84545751 3.21033856 8.80280126 1.8125 5.9375 C1.29623047 4.89916016 1.29623047 4.89916016 0.76953125 3.83984375 C0 2 0 2 0 0 Z " fill="#D0B021" transform="translate(521,570)"/>
<path d="M0 0 C3 1 3 1 4.16796875 3.06640625 C4.50441406 3.89011719 4.84085937 4.71382813 5.1875 5.5625 C5.53167969 6.38878906 5.87585938 7.21507812 6.23046875 8.06640625 C6.48441406 8.70449219 6.73835938 9.34257812 7 10 C6.34 10.66 5.68 11.32 5 12 C4.16180842 10.37750059 3.3295884 8.75191503 2.5 7.125 C2.0359375 6.22007812 1.571875 5.31515625 1.09375 4.3828125 C0 2 0 2 0 0 Z " fill="#DEC322" transform="translate(462,403)"/>
<path d="M0 0 C0.66 0.33 1.32 0.66 2 1 C1.01 2.485 1.01 2.485 0 4 C0 4.99 0 5.98 0 7 C-1.32 7.33 -2.64 7.66 -4 8 C-4.33 6.68 -4.66 5.36 -5 4 C-3.35 2.68 -1.7 1.36 0 0 Z " fill="#F0CF1B" transform="translate(280,303)"/>
<path d="M0 0 C0.66 0.33 1.32 0.66 2 1 C-0.25740623 3.33524782 -2.2805761 5.18705073 -5 7 C-6.32 6.67 -7.64 6.34 -9 6 C-6.03 4.02 -3.06 2.04 0 0 Z " fill="#EBCD23" transform="translate(356,237)"/>
<path d="M0 0 C0.33 0 0.66 0 1 0 C1.8320582 5.72040011 2.12036664 11.22240116 2 17 C1.67 17 1.34 17 1 17 C1 15.02 1 13.04 1 11 C0.34 11 -0.32 11 -1 11 C-0.67 7.37 -0.34 3.74 0 0 Z " fill="#DDAE1B" transform="translate(819,463)"/>
<path d="M0 0 C-3.03525486 2.02350324 -4.19426202 2.32124018 -7.6875 2.625 C-8.49574219 2.69976563 -9.30398438 2.77453125 -10.13671875 2.8515625 C-10.75160156 2.90054688 -11.36648438 2.94953125 -12 3 C-11.01 2.67 -10.02 2.34 -9 2 C-9 1.34 -9 0.68 -9 0 C-5.93109813 -1.53445094 -3.29905734 -0.54984289 0 0 Z " fill="#D4AF1C" transform="translate(724,673)"/>
<path d="M0 0 C0 0.99 0 1.98 0 3 C-3.47325181 4.1577506 -6.36067448 4.06866652 -10 4 C-7.25346796 1.25346796 -3.91404908 0 0 0 Z " fill="#E9BE10" transform="translate(730,669)"/>
<path d="M0 0 C3.40312738 1.05875074 6.01353231 2.00902154 9 4 C9 4.66 9 5.32 9 6 C2.42696629 4.1011236 2.42696629 4.1011236 0 1 C0 0.67 0 0.34 0 0 Z " fill="#E9CC1E" transform="translate(384,320)"/>
<path d="M0 0 C6.52307692 1.35384615 6.52307692 1.35384615 8.9375 4.625 C9.288125 5.40875 9.63875 6.1925 10 7 C5.56541027 5.6062718 3.12621626 3.39417765 0 0 Z " fill="#075E4B" transform="translate(331,761)"/>
<path d="M0 0 C0.66 0 1.32 0 2 0 C5.125 6.625 5.125 6.625 4 10 C0 4.5 0 4.5 0 0 Z " fill="#E3BA16" transform="translate(799,394)"/>
<path d="M0 0 C7.63076923 1.47692308 7.63076923 1.47692308 9.5 4.125 C9.665 4.74375 9.83 5.3625 10 6 C6.40992874 4.66654496 3.20429093 3.1056769 0 1 C0 0.67 0 0.34 0 0 Z " fill="#D7B51D" transform="translate(596,655)"/>
<path d="M0 0 C3 1 3 1 4.3125 3.375 C4.6528125 4.674375 4.6528125 4.674375 5 6 C4.01 7.485 4.01 7.485 3 9 C0 3.375 0 3.375 0 0 Z " fill="#D8B61D" transform="translate(516,559)"/>
<path d="M0 0 C0.99 0.33 1.98 0.66 3 1 C3.73046875 3.06640625 3.73046875 3.06640625 4.1875 5.5625 C4.34605469 6.38878906 4.50460937 7.21507812 4.66796875 8.06640625 C4.77753906 8.70449219 4.88710938 9.34257812 5 10 C2.08772731 6.71195019 0.50298788 4.40114397 0 0 Z " fill="#E9BC14" transform="translate(804,409)"/>
<path d="M0 0 C-0.8125 2.9375 -0.8125 2.9375 -2 6 C-2.99 6.33 -3.98 6.66 -5 7 C-5.33 5.68 -5.66 4.36 -6 3 C-2.25 0 -2.25 0 0 0 Z " fill="#377548" transform="translate(768,681)"/>
<path d="M0 0 C1.32 1.32 2.64 2.64 4 4 C3.67 4.99 3.34 5.98 3 7 C1.35 5.68 -0.3 4.36 -2 3 C-1 1 -1 1 0 0 Z " fill="#DDB419" transform="translate(550,612)"/>
<path d="M0 0 C4.95 0 9.9 0 15 0 C15 0.33 15 0.66 15 1 C10.05 1 5.1 1 0 1 C0 0.67 0 0.34 0 0 Z " fill="#065E4B" transform="translate(510,822)"/>
<path d="M0 0 C1.98 0 3.96 0 6 0 C6 0.33 6 0.66 6 1 C4.02 1 2.04 1 0 1 C0 0.67 0 0.34 0 0 Z " fill="#065F4C" transform="translate(498,822)"/>
<path d="M0 0 C0.66 0 1.32 0 2 0 C2.33 1.32 2.66 2.64 3 4 C1.97895449 3.02149805 0.9793879 2.02019573 0 1 C0 0.67 0 0.34 0 0 Z " fill="#448652" transform="translate(421,392)"/>
<path d="M0 0 C0.99 0 1.98 0 3 0 C2.67 0.99 2.34 1.98 2 3 C1.34 2.01 0.68 1.02 0 0 Z " fill="#E6BA16" transform="translate(733,288)"/>
<path d="M0 0 C0.66 0 1.32 0 2 0 C1.67 0.99 1.34 1.98 1 3 C0.67 2.01 0.34 1.02 0 0 Z " fill="#3D7A49" transform="translate(525,632)"/>
<path d="M0 0 C1.98 0.99 1.98 0.99 4 2 C2.68 1.67 1.36 1.34 0 1 C0 0.67 0 0.34 0 0 Z " fill="#EBBE18" transform="translate(645,224)"/>
<path d="M0 0 C4 1 4 1 4 1 Z " fill="#34794D" transform="translate(660,708)"/>
<path d="M0 0 C4 1 4 1 4 1 Z " fill="#3D7F50" transform="translate(698,704)"/>
<path d="M0 0 C0 3 0 3 0 3 Z " fill="#407D4B" transform="translate(510,610)"/>
<path d="M0 0 C0.99 1.485 0.99 1.485 2 3 C1.34 3 0.68 3 0 3 C0 2.01 0 1.02 0 0 Z " fill="#3A8052" transform="translate(462,489)"/>
<path d="M0 0 C1 4 1 4 1 4 Z " fill="#10705B" transform="translate(200,456)"/>
<path d="M0 0 C3 1 3 1 3 1 Z " fill="#07614D" transform="translate(580,814)"/>
<path d="M0 0 C3 1 3 1 3 1 Z " fill="#387B4D" transform="translate(596,691)"/>
<path d="M0 0 C3 1 3 1 3 1 Z " fill="#4B7B4A" transform="translate(751,688)"/>
<path d="M0 0 C3 1 3 1 3 1 Z " fill="#C7AB24" transform="translate(701,679)"/>
<path d="M0 0 C0.99 0.495 0.99 0.495 2 1 C1.01 1.495 1.01 1.495 0 2 C0 1.34 0 0.68 0 0 Z " fill="#C3AB26" transform="translate(707,678)"/>
<path d="M0 0 C3 1 3 1 3 1 Z " fill="#C8AC25" transform="translate(651,678)"/>
<path d="M0 0 C0.66 0.66 1.32 1.32 2 2 C1.34 2 0.68 2 0 2 C0 1.34 0 0.68 0 0 Z " fill="#0D6A53" transform="translate(233,651)"/>
<path d="M0 0 C0.33 0.66 0.66 1.32 1 2 C0.34 1.67 -0.32 1.34 -1 1 C-0.67 0.67 -0.34 0.34 0 0 Z " fill="#447E46" transform="translate(543,649)"/>
<path d="M0 0 C0.66 0 1.32 0 2 0 C1.67 0.66 1.34 1.32 1 2 C0.67 1.34 0.34 0.68 0 0 Z " fill="#457E49" transform="translate(510,608)"/>
<path d="M0 0 C0.99 0.495 0.99 0.495 2 1 C1.01 1.495 1.01 1.495 0 2 C0 1.34 0 0.68 0 0 Z " fill="#46814B" transform="translate(502,594)"/>
<path d="" fill="#C6AF29" transform="translate(0,0)"/>
<path d="" fill="#3C7F51" transform="translate(0,0)"/>
<path d="" fill="#DCAA11" transform="translate(0,0)"/>
<path d="" fill="#C9B42C" transform="translate(0,0)"/>
<path d="M0 0 C0.66 0 1.32 0 2 0 C1.67 0.66 1.34 1.32 1 2 C0.67 1.34 0.34 0.68 0 0 Z " fill="#C7B42A" transform="translate(474,438)"/>
<path d="" fill="#418753" transform="translate(0,0)"/>
<path d="" fill="#3E8653" transform="translate(0,0)"/>
<path d="M0 0 C0.66 0 1.32 0 2 0 C1.67 0.66 1.34 1.32 1 2 C0.67 1.34 0.34 0.68 0 0 Z " fill="#D1BA29" transform="translate(435,365)"/>
<path d="M0 0 C3 1 3 1 3 1 Z " fill="#EAC01B" transform="translate(376,224)"/>
<path d="M0 0 C2 1 2 1 2 1 Z " fill="#055F4A" transform="translate(526,822)"/>
<path d="M0 0 C2 1 2 1 2 1 Z " fill="#065E4D" transform="translate(507,822)"/>
<path d="M0 0 C2 1 2 1 2 1 Z " fill="#08614F" transform="translate(537,821)"/>
<path d="M0 0 C2 1 2 1 2 1 Z " fill="#076250" transform="translate(448,815)"/>
<path d="M0 0 C2 1 2 1 2 1 Z " fill="#066150" transform="translate(443,814)"/>
<path d="M0 0 C2 1 2 1 2 1 Z " fill="#096250" transform="translate(416,807)"/>
<path d="M0 0 C2 1 2 1 2 1 Z " fill="#0A6250" transform="translate(377,791)"/>
<path d="" fill="#085F4D" transform="translate(0,0)"/>
<path d="" fill="#0B6751" transform="translate(0,0)"/>
<path d="M0 0 C2 1 2 1 2 1 Z " fill="#3A7C4F" transform="translate(709,704)"/>
<path d="M0 0 C2 1 2 1 2 1 Z " fill="#3B7C4D" transform="translate(648,704)"/>
<path d="M0 0 C2 1 2 1 2 1 Z " fill="#0B6752" transform="translate(265,701)"/>
<path d="" fill="#4B814D" transform="translate(0,0)"/>
<path d="M0 0 C2 1 2 1 2 1 Z " fill="#C7A924" transform="translate(734,671)"/>
<path d="M0 0 C2 1 2 1 2 1 Z " fill="#C7A923" transform="translate(624,671)"/>
<path d="" fill="#0D6A54" transform="translate(0,0)"/>
<path d="" fill="#0E6A52" transform="translate(0,0)"/>
<path d="" fill="#0F6A54" transform="translate(0,0)"/>
<path d="M0 0 C2 1 2 1 2 1 Z " fill="#C8AD24" transform="translate(537,603)"/>
<path d="" fill="#DAA810" transform="translate(0,0)"/>
<path d="" fill="#0B6C56" transform="translate(0,0)"/>
<path d="" fill="#0E6C56" transform="translate(0,0)"/>
<path d="M0 0 C2 1 2 1 2 1 Z " fill="#C4AC28" transform="translate(520,575)"/>
<path d="" fill="#DEAC0F" transform="translate(0,0)"/>
<path d="" fill="#C8AC24" transform="translate(0,0)"/>
<path d="" fill="#3A7D4E" transform="translate(0,0)"/>
<path d="" fill="#3E8050" transform="translate(0,0)"/>
<path d="" fill="#0D6F5B" transform="translate(0,0)"/>
<path d="" fill="#3C7F51" transform="translate(0,0)"/>
<path d="" fill="#398155" transform="translate(0,0)"/>
<path d="" fill="#CAB12A" transform="translate(0,0)"/>
<path d="" fill="#3F8353" transform="translate(0,0)"/>
<path d="" fill="#418350" transform="translate(0,0)"/>
<path d="" fill="#408554" transform="translate(0,0)"/>
<path d="" fill="#DEAE13" transform="translate(0,0)"/>
<path d="" fill="#408757" transform="translate(0,0)"/>
<path d="" fill="#418954" transform="translate(0,0)"/>
<path d="" fill="#15765D" transform="translate(0,0)"/>
<path d="" fill="#CEB728" transform="translate(0,0)"/>
<path d="M0 0 C2 1 2 1 2 1 Z " fill="#247D5A" transform="translate(261,352)"/>
<path d="" fill="#458A55" transform="translate(0,0)"/>
<path d="M0 0 C2 1 2 1 2 1 Z " fill="#378659" transform="translate(288,341)"/>
<path d="M0 0 C2 1 2 1 2 1 Z " fill="#478C58" transform="translate(308,336)"/>
<path d="M0 0 C2 1 2 1 2 1 Z " fill="#D1BA2A" transform="translate(403,335)"/>
<path d="M0 0 C2 1 2 1 2 1 Z " fill="#CEBB2B" transform="translate(390,327)"/>
<path d="M0 0 C2 1 2 1 2 1 Z " fill="#DCC027" transform="translate(341,310)"/>
<path d="M0 0 C2 1 2 1 2 1 Z " fill="#D2BB2B" transform="translate(297,309)"/>
<path d="M0 0 C2 1 2 1 2 1 Z " fill="#DDC426" transform="translate(321,308)"/>
<path d="M0 0 C2 1 2 1 2 1 Z " fill="#E7B917" transform="translate(741,296)"/>
<path d="M0 0 C2 1 2 1 2 1 Z " fill="#E6BE1D" transform="translate(360,232)"/>
<path d="M0 0 C2 1 2 1 2 1 Z " fill="#EEC31C" transform="translate(418,208)"/>
<path d="M0 0 C2 1 2 1 2 1 Z " fill="#EFC516" transform="translate(453,200)"/>
<path d="M0 0 C2 1 2 1 2 1 Z " fill="#F0C618" transform="translate(450,200)"/>
<path d="M0 0 C2 1 2 1 2 1 Z " fill="#EDC418" transform="translate(472,197)"/>
<path d="" fill="#000000" transform="translate(0,0)"/>
<path d="" fill="#000301" transform="translate(0,0)"/>
<path d="" fill="#000705" transform="translate(0,0)"/>
<path d="" fill="#07634C" transform="translate(0,0)"/>
<path d="" fill="#075E4C" transform="translate(0,0)"/>
<path d="" fill="#07614D" transform="translate(0,0)"/>
<path d="" fill="#08624D" transform="translate(0,0)"/>
<path d="" fill="#05614F" transform="translate(0,0)"/>
<path d="" fill="#095D4A" transform="translate(0,0)"/>
<path d="" fill="#085F4D" transform="translate(0,0)"/>
<path d="" fill="#07624E" transform="translate(0,0)"/>
<path d="" fill="#08604E" transform="translate(0,0)"/>
<path d="" fill="#0B634E" transform="translate(0,0)"/>
<path d="" fill="#08634F" transform="translate(0,0)"/>
<path d="" fill="#08644D" transform="translate(0,0)"/>
<path d="" fill="#08604C" transform="translate(0,0)"/>
<path d="" fill="#0A624F" transform="translate(0,0)"/>
<path d="" fill="#0B614E" transform="translate(0,0)"/>
<path d="" fill="#0A634F" transform="translate(0,0)"/>
<path d="" fill="#05624E" transform="translate(0,0)"/>
<path d="" fill="#06634E" transform="translate(0,0)"/>
<path d="" fill="#0B6452" transform="translate(0,0)"/>
<path d="" fill="#095F4C" transform="translate(0,0)"/>
<path d="" fill="#0B624D" transform="translate(0,0)"/>
<path d="" fill="#09634F" transform="translate(0,0)"/>
<path d="" fill="#04634F" transform="translate(0,0)"/>
<path d="" fill="#07614E" transform="translate(0,0)"/>
<path d="" fill="#106951" transform="translate(0,0)"/>
<path d="" fill="#09654E" transform="translate(0,0)"/>
<path d="" fill="#0C6850" transform="translate(0,0)"/>
<path d="" fill="#06634F" transform="translate(0,0)"/>
<path d="" fill="#126851" transform="translate(0,0)"/>
<path d="" fill="#08614D" transform="translate(0,0)"/>
<path d="" fill="#076251" transform="translate(0,0)"/>
<path d="" fill="#07634D" transform="translate(0,0)"/>
<path d="" fill="#0A664F" transform="translate(0,0)"/>
<path d="" fill="#0E6650" transform="translate(0,0)"/>
<path d="" fill="#08614D" transform="translate(0,0)"/>
<path d="" fill="#0D664F" transform="translate(0,0)"/>
<path d="" fill="#0C6754" transform="translate(0,0)"/>
<path d="" fill="#387A50" transform="translate(0,0)"/>
<path d="" fill="#387C50" transform="translate(0,0)"/>
<path d="" fill="#387C50" transform="translate(0,0)"/>
<path d="" fill="#387B4F" transform="translate(0,0)"/>
<path d="" fill="#387E50" transform="translate(0,0)"/>
<path d="" fill="#3B7D4F" transform="translate(0,0)"/>
<path d="" fill="#317951" transform="translate(0,0)"/>
<path d="" fill="#347951" transform="translate(0,0)"/>
<path d="" fill="#397E51" transform="translate(0,0)"/>
<path d="" fill="#3B7D4C" transform="translate(0,0)"/>
<path d="" fill="#35774E" transform="translate(0,0)"/>
<path d="" fill="#377C50" transform="translate(0,0)"/>
<path d="" fill="#397B4F" transform="translate(0,0)"/>
<path d="" fill="#3D7D4C" transform="translate(0,0)"/>
<path d="" fill="#427F4E" transform="translate(0,0)"/>
<path d="" fill="#337A4D" transform="translate(0,0)"/>
<path d="" fill="#31784D" transform="translate(0,0)"/>
<path d="" fill="#437F4E" transform="translate(0,0)"/>
<path d="" fill="#447E4E" transform="translate(0,0)"/>
<path d="" fill="#3B7C4B" transform="translate(0,0)"/>
<path d="" fill="#33774E" transform="translate(0,0)"/>
<path d="" fill="#3C7E4E" transform="translate(0,0)"/>
<path d="" fill="#3F814D" transform="translate(0,0)"/>
<path d="" fill="#377B4D" transform="translate(0,0)"/>
<path d="" fill="#407F4D" transform="translate(0,0)"/>
<path d="" fill="#387E4F" transform="translate(0,0)"/>
<path d="" fill="#367A4E" transform="translate(0,0)"/>
<path d="" fill="#0A6650" transform="translate(0,0)"/>
<path d="" fill="#3D7D4D" transform="translate(0,0)"/>
<path d="" fill="#2F714A" transform="translate(0,0)"/>
<path d="" fill="#4B844A" transform="translate(0,0)"/>
<path d="" fill="#427D4C" transform="translate(0,0)"/>
<path d="" fill="#0C6552" transform="translate(0,0)"/>
<path d="" fill="#3F7D4D" transform="translate(0,0)"/>
<path d="" fill="#4B844A" transform="translate(0,0)"/>
<path d="" fill="#4D7F4E" transform="translate(0,0)"/>
<path d="" fill="#4B8148" transform="translate(0,0)"/>
<path d="" fill="#3D7E4B" transform="translate(0,0)"/>
<path d="" fill="#3A784A" transform="translate(0,0)"/>
<path d="" fill="#BEAA2A" transform="translate(0,0)"/>
<path d="" fill="#C9AC25" transform="translate(0,0)"/>
<path d="" fill="#C7AC23" transform="translate(0,0)"/>
<path d="" fill="#C3AA27" transform="translate(0,0)"/>
<path d="" fill="#C5AA25" transform="translate(0,0)"/>
<path d="" fill="#C5AA23" transform="translate(0,0)"/>
<path d="" fill="#467F48" transform="translate(0,0)"/>
<path d="" fill="#4F8348" transform="translate(0,0)"/>
<path d="" fill="#3B7A4E" transform="translate(0,0)"/>
<path d="" fill="#33794D" transform="translate(0,0)"/>
<path d="" fill="#0A6851" transform="translate(0,0)"/>
<path d="" fill="#C6AB26" transform="translate(0,0)"/>
<path d="" fill="#C3A927" transform="translate(0,0)"/>
<path d="" fill="#C4AA22" transform="translate(0,0)"/>
<path d="" fill="#39794A" transform="translate(0,0)"/>
<path d="" fill="#0F6953" transform="translate(0,0)"/>
<path d="" fill="#3C7A4B" transform="translate(0,0)"/>
<path d="" fill="#3E7B4A" transform="translate(0,0)"/>
<path d="" fill="#38774C" transform="translate(0,0)"/>
<path d="" fill="#C4A921" transform="translate(0,0)"/>
<path d="" fill="#C2AA2A" transform="translate(0,0)"/>
<path d="" fill="#C4AC27" transform="translate(0,0)"/>
<path d="" fill="#3F7A4A" transform="translate(0,0)"/>
<path d="" fill="#CCB021" transform="translate(0,0)"/>
<path d="" fill="#3C7C4A" transform="translate(0,0)"/>
<path d="" fill="#C8AA24" transform="translate(0,0)"/>
<path d="" fill="#0C6853" transform="translate(0,0)"/>
<path d="" fill="#C9AA24" transform="translate(0,0)"/>
<path d="" fill="#0D6652" transform="translate(0,0)"/>
<path d="" fill="#CBAD21" transform="translate(0,0)"/>
<path d="" fill="#D1A315" transform="translate(0,0)"/>
<path d="" fill="#CBAA25" transform="translate(0,0)"/>
<path d="" fill="#3A7A4B" transform="translate(0,0)"/>
<path d="" fill="#C9AA24" transform="translate(0,0)"/>
<path d="" fill="#C8AC21" transform="translate(0,0)"/>
<path d="" fill="#C9AD26" transform="translate(0,0)"/>
<path d="" fill="#070400" transform="translate(0,0)"/>
<path d="" fill="#D6A510" transform="translate(0,0)"/>
<path d="" fill="#0D6A53" transform="translate(0,0)"/>
<path d="" fill="#D5A70F" transform="translate(0,0)"/>
<path d="" fill="#D7A313" transform="translate(0,0)"/>
<path d="" fill="#3E7C4B" transform="translate(0,0)"/>
<path d="" fill="#C8AC26" transform="translate(0,0)"/>
<path d="" fill="#0F6A55" transform="translate(0,0)"/>
<path d="" fill="#417F4D" transform="translate(0,0)"/>
<path d="" fill="#377E4B" transform="translate(0,0)"/>
<path d="" fill="#CCAC20" transform="translate(0,0)"/>
<path d="" fill="#D7A30F" transform="translate(0,0)"/>
<path d="" fill="#CAAC1C" transform="translate(0,0)"/>
<path d="" fill="#CDAB20" transform="translate(0,0)"/>
<path d="" fill="#C9AD25" transform="translate(0,0)"/>
<path d="" fill="#D6A416" transform="translate(0,0)"/>
<path d="" fill="#0A6C54" transform="translate(0,0)"/>
<path d="" fill="#C3AC25" transform="translate(0,0)"/>
<path d="" fill="#457F4C" transform="translate(0,0)"/>
<path d="" fill="#C3AD25" transform="translate(0,0)"/>
<path d="" fill="#3C7F4D" transform="translate(0,0)"/>
<path d="" fill="#0D6D57" transform="translate(0,0)"/>
<path d="" fill="#C7AE20" transform="translate(0,0)"/>
<path d="" fill="#49804A" transform="translate(0,0)"/>
<path d="" fill="#C7AB23" transform="translate(0,0)"/>
<path d="" fill="#DDA90E" transform="translate(0,0)"/>
<path d="" fill="#C3A924" transform="translate(0,0)"/>
<path d="" fill="#CAAD1E" transform="translate(0,0)"/>
<path d="" fill="#DCAB10" transform="translate(0,0)"/>
<path d="" fill="#DBA80E" transform="translate(0,0)"/>
<path d="" fill="#C2AB26" transform="translate(0,0)"/>
<path d="" fill="#C2AC23" transform="translate(0,0)"/>
<path d="" fill="#C4AE26" transform="translate(0,0)"/>
<path d="" fill="#44804F" transform="translate(0,0)"/>
<path d="" fill="#45824C" transform="translate(0,0)"/>
<path d="" fill="#48834E" transform="translate(0,0)"/>
<path d="" fill="#CBAD23" transform="translate(0,0)"/>
<path d="" fill="#0C6C56" transform="translate(0,0)"/>
<path d="" fill="#0E6F57" transform="translate(0,0)"/>
<path d="" fill="#0E6D57" transform="translate(0,0)"/>
<path d="" fill="#C8AF27" transform="translate(0,0)"/>
<path d="" fill="#D9A812" transform="translate(0,0)"/>
<path d="" fill="#3D7F51" transform="translate(0,0)"/>
<path d="" fill="#3B8151" transform="translate(0,0)"/>
<path d="" fill="#DEAD16" transform="translate(0,0)"/>
<path d="" fill="#DFAB14" transform="translate(0,0)"/>
<path d="" fill="#C1AE2B" transform="translate(0,0)"/>
<path d="" fill="#C6B127" transform="translate(0,0)"/>
<path d="" fill="#C3B029" transform="translate(0,0)"/>
<path d="" fill="#3D8152" transform="translate(0,0)"/>
<path d="" fill="#C3B027" transform="translate(0,0)"/>
<path d="" fill="#C6B123" transform="translate(0,0)"/>
<path d="" fill="#C5B027" transform="translate(0,0)"/>
<path d="" fill="#C5B127" transform="translate(0,0)"/>
<path d="" fill="#C3B329" transform="translate(0,0)"/>
<path d="" fill="#E1B015" transform="translate(0,0)"/>
<path d="" fill="#C7B228" transform="translate(0,0)"/>
<path d="" fill="#3B8052" transform="translate(0,0)"/>
<path d="" fill="#C9B329" transform="translate(0,0)"/>
<path d="" fill="#398354" transform="translate(0,0)"/>
<path d="" fill="#DDAE15" transform="translate(0,0)"/>
<path d="" fill="#45864F" transform="translate(0,0)"/>
<path d="" fill="#DEAB12" transform="translate(0,0)"/>
<path d="" fill="#C6B429" transform="translate(0,0)"/>
<path d="" fill="#3F8451" transform="translate(0,0)"/>
<path d="" fill="#DEAC13" transform="translate(0,0)"/>
<path d="" fill="#E4B010" transform="translate(0,0)"/>
<path d="" fill="#CFB629" transform="translate(0,0)"/>
<path d="" fill="#0F725D" transform="translate(0,0)"/>
<path d="" fill="#C4B52A" transform="translate(0,0)"/>
<path d="" fill="#CAB828" transform="translate(0,0)"/>
<path d="" fill="#10705B" transform="translate(0,0)"/>
<path d="" fill="#CDB525" transform="translate(0,0)"/>
<path d="" fill="#3F8854" transform="translate(0,0)"/>
<path d="" fill="#3C8555" transform="translate(0,0)"/>
<path d="" fill="#11705C" transform="translate(0,0)"/>
<path d="" fill="#107259" transform="translate(0,0)"/>
<path d="" fill="#E1AE0E" transform="translate(0,0)"/>
<path d="" fill="#CAB72D" transform="translate(0,0)"/>
<path d="" fill="#438853" transform="translate(0,0)"/>
<path d="" fill="#10755C" transform="translate(0,0)"/>
<path d="" fill="#498A51" transform="translate(0,0)"/>
<path d="" fill="#4E874F" transform="translate(0,0)"/>
<path d="" fill="#CEB72D" transform="translate(0,0)"/>
<path d="" fill="#508D4F" transform="translate(0,0)"/>
<path d="" fill="#5B8F4E" transform="translate(0,0)"/>
<path d="" fill="#10735A" transform="translate(0,0)"/>
<path d="" fill="#D9B728" transform="translate(0,0)"/>
<path d="" fill="#0F7057" transform="translate(0,0)"/>
<path d="" fill="#3F8857" transform="translate(0,0)"/>
<path d="" fill="#DEAE10" transform="translate(0,0)"/>
<path d="" fill="#D0B92B" transform="translate(0,0)"/>
<path d="" fill="#E1AF11" transform="translate(0,0)"/>
<path d="" fill="#E4B310" transform="translate(0,0)"/>
<path d="" fill="#D3B929" transform="translate(0,0)"/>
<path d="" fill="#D0BB2A" transform="translate(0,0)"/>
<path d="" fill="#14765A" transform="translate(0,0)"/>
<path d="" fill="#12715B" transform="translate(0,0)"/>
<path d="" fill="#15755B" transform="translate(0,0)"/>
<path d="" fill="#468B55" transform="translate(0,0)"/>
<path d="" fill="#E2B411" transform="translate(0,0)"/>
<path d="" fill="#568E4E" transform="translate(0,0)"/>
<path d="" fill="#117658" transform="translate(0,0)"/>
<path d="" fill="#5C924F" transform="translate(0,0)"/>
<path d="" fill="#167559" transform="translate(0,0)"/>
<path d="" fill="#D1BB29" transform="translate(0,0)"/>
<path d="" fill="#4A8D56" transform="translate(0,0)"/>
<path d="" fill="#D5BD25" transform="translate(0,0)"/>
<path d="" fill="#DFB218" transform="translate(0,0)"/>
<path d="" fill="#E3B417" transform="translate(0,0)"/>
<path d="" fill="#38885C" transform="translate(0,0)"/>
<path d="" fill="#1C7957" transform="translate(0,0)"/>
<path d="" fill="#569051" transform="translate(0,0)"/>
<path d="" fill="#D3B82A" transform="translate(0,0)"/>
<path d="" fill="#D7BC24" transform="translate(0,0)"/>
<path d="" fill="#DABD26" transform="translate(0,0)"/>
<path d="" fill="#408855" transform="translate(0,0)"/>
<path d="" fill="#D9BC27" transform="translate(0,0)"/>
<path d="" fill="#217B58" transform="translate(0,0)"/>
<path d="" fill="#468654" transform="translate(0,0)"/>
<path d="" fill="#247C5A" transform="translate(0,0)"/>
<path d="" fill="#D5BA2B" transform="translate(0,0)"/>
<path d="" fill="#D3BD28" transform="translate(0,0)"/>
<path d="" fill="#020200" transform="translate(0,0)"/>
<path d="" fill="#483502" transform="translate(0,0)"/>
<path d="" fill="#D6C026" transform="translate(0,0)"/>
<path d="" fill="#D1BA2B" transform="translate(0,0)"/>
<path d="" fill="#CCBC2D" transform="translate(0,0)"/>
<path d="" fill="#2E7F59" transform="translate(0,0)"/>
<path d="" fill="#308056" transform="translate(0,0)"/>
<path d="" fill="#328058" transform="translate(0,0)"/>
<path d="" fill="#CDBA2B" transform="translate(0,0)"/>
<path d="" fill="#D0BA28" transform="translate(0,0)"/>
<path d="" fill="#458A57" transform="translate(0,0)"/>
<path d="" fill="#3C8657" transform="translate(0,0)"/>
<path d="" fill="#458B56" transform="translate(0,0)"/>
<path d="" fill="#428A57" transform="translate(0,0)"/>
<path d="" fill="#3F8A5B" transform="translate(0,0)"/>
<path d="" fill="#3E875B" transform="translate(0,0)"/>
<path d="" fill="#E3B410" transform="translate(0,0)"/>
<path d="" fill="#468A5A" transform="translate(0,0)"/>
<path d="" fill="#4E8E56" transform="translate(0,0)"/>
<path d="" fill="#428B58" transform="translate(0,0)"/>
<path d="" fill="#478B58" transform="translate(0,0)"/>
<path d="" fill="#D0BA2E" transform="translate(0,0)"/>
<path d="" fill="#D1BA2A" transform="translate(0,0)"/>
<path d="" fill="#EAB912" transform="translate(0,0)"/>
<path d="" fill="#D8BF2A" transform="translate(0,0)"/>
<path d="" fill="#E6B915" transform="translate(0,0)"/>
<path d="" fill="#CFBC29" transform="translate(0,0)"/>
<path d="" fill="#CFBD2F" transform="translate(0,0)"/>
<path d="" fill="#D4BD2A" transform="translate(0,0)"/>
<path d="" fill="#D6BF29" transform="translate(0,0)"/>
<path d="" fill="#D9BF27" transform="translate(0,0)"/>
<path d="" fill="#D4BC2B" transform="translate(0,0)"/>
<path d="" fill="#D5BE2A" transform="translate(0,0)"/>
<path d="" fill="#A6A635" transform="translate(0,0)"/>
<path d="" fill="#C1B42F" transform="translate(0,0)"/>
<path d="" fill="#CDBA2F" transform="translate(0,0)"/>
<path d="" fill="#E6B812" transform="translate(0,0)"/>
<path d="" fill="#E9BD11" transform="translate(0,0)"/>
<path d="" fill="#CEB323" transform="translate(0,0)"/>
<path d="" fill="#E6B918" transform="translate(0,0)"/>
<path d="" fill="#E8BC14" transform="translate(0,0)"/>
<path d="" fill="#E2BE1C" transform="translate(0,0)"/>
<path d="" fill="#E5BD1B" transform="translate(0,0)"/>
<path d="" fill="#E4BF17" transform="translate(0,0)"/>
<path d="" fill="#E8BD19" transform="translate(0,0)"/>
<path d="" fill="#E6BD1D" transform="translate(0,0)"/>
<path d="" fill="#E2BB1C" transform="translate(0,0)"/>
<path d="" fill="#E8BC15" transform="translate(0,0)"/>
<path d="" fill="#E5BD1B" transform="translate(0,0)"/>
<path d="" fill="#F0C012" transform="translate(0,0)"/>
<path d="" fill="#EDC118" transform="translate(0,0)"/>
<path d="" fill="#E3BA21" transform="translate(0,0)"/>
<path d="" fill="#E9C11D" transform="translate(0,0)"/>
<path d="" fill="#E3BD1C" transform="translate(0,0)"/>
<path d="" fill="#EABF19" transform="translate(0,0)"/>
<path d="" fill="#EBC217" transform="translate(0,0)"/>
<path d="" fill="#EAC018" transform="translate(0,0)"/>
<path d="" fill="#EAC117" transform="translate(0,0)"/>
<path d="" fill="#E5BD1C" transform="translate(0,0)"/>
<path d="" fill="#ECC21A" transform="translate(0,0)"/>
<path d="" fill="#E6BE18" transform="translate(0,0)"/>
<path d="" fill="#EFC217" transform="translate(0,0)"/>
<path d="" fill="#EFC117" transform="translate(0,0)"/>
<path d="" fill="#ECC31D" transform="translate(0,0)"/>
<path d="" fill="#E8C01D" transform="translate(0,0)"/>
<path d="" fill="#EDC01B" transform="translate(0,0)"/>
<path d="" fill="#EDC21C" transform="translate(0,0)"/>
<path d="" fill="#EBC118" transform="translate(0,0)"/>
<path d="" fill="#ECC418" transform="translate(0,0)"/>
<path d="" fill="#E8BF1A" transform="translate(0,0)"/>
<path d="" fill="#EDC318" transform="translate(0,0)"/>
<path d="" fill="#EAC41B" transform="translate(0,0)"/>
<path d="" fill="#EAC318" transform="translate(0,0)"/>
<path d="" fill="#EBC418" transform="translate(0,0)"/>
<path d="" fill="#EDC21A" transform="translate(0,0)"/>
<path d="" fill="#EEC618" transform="translate(0,0)"/>
<path d="" fill="#EDC317" transform="translate(0,0)"/>
<path d="" fill="#EDC419" transform="translate(0,0)"/>
<path d="" fill="#EDC51A" transform="translate(0,0)"/>
<path d="" fill="#EEC317" transform="translate(0,0)"/>
<path d="" fill="#F0C818" transform="translate(0,0)"/>
<path d="" fill="#EFC519" transform="translate(0,0)"/>
<path d="" fill="#201800" transform="translate(0,0)"/>
<path d="" fill="#000000" transform="translate(0,0)"/>
<path d="" fill="#020200" transform="translate(0,0)"/>
<path d="" fill="#0C0800" transform="translate(0,0)"/>
<path d="" fill="#040000" transform="translate(0,0)"/>
<path d="" fill="#020000" transform="translate(0,0)"/>
<path d="" fill="#0B0600" transform="translate(0,0)"/>
<path d="" fill="#110A00" transform="translate(0,0)"/>
</svg>
